Cover:
 
http://s17.postimg.org/nob1s8k2n/the_host_THEHOST_1sht_dm_wip21_rgb.jpg

==================================================================================

The.Host.2013.Webrip Xvid Ac3 5.1-MiLLENiUM

Source : The.Host.2013.720p.KOR.HDRip.H-KTH [thanks]
Format : AVI
Format/Info : Audio Video Interleave
File size : 1.96 GiB
Duration : 2h 10mn
Overall bit rate : 2 152 Kbps
Writing application : VirtualDubMod 1.5.10.2 (build 2540/release)
Writing library : VirtualDubMod build 2540/release

==================================================================================

Video
ID : 0
Format : MPEG-4 Visual
Format profile : Advanced Simple@L5
Format settings, BVOP : 2
Format settings, QPel : No
Format settings, GMC : No warppoints
Format settings, Matrix : Default (H.263)
Muxing mode : Packed bitstream
Codec ID : XVID
Codec ID/Hint : XviD
Duration : 2h 10mn
Bit rate : 1 692 Kbps
Width : 720 pixels
Height : 278 pixels
Display aspect ratio : 2.590
Frame rate : 29.970 fps
Color space : YUV
Chroma subsampling : 4:2:0
Bit depth : 8 bits
Scan type : Progressive
Compression mode : Lossy
Bits/(Pixel*Frame) : 0.282
Stream size : 1.54 GiB (79%)
Writing library : XviD 1.2.1 (UTC 2008-12-04)

==================================================================================

Audio
ID : 1
Format : AC-3
Format/Info : Audio Coding 3
Mode extension : CM (complete main)
Codec ID : 2000
Duration : 2h 10mn
Bit rate mode : Constant
Bit rate : 448 Kbps
Channel(s) : 6 channels
Channel positions : Front: L C R, Side: L R, LFE
Sampling rate : 48.0 KHz
Bit depth : 16 bits
Compression mode : Lossy
Delay relative to video : 21ms
Stream size : 418 MiB (21%)
Alignment : Split accross interleaves
Interleave, duration : 33 ms (1.00 video frame)
Interleave, preload duration : 500 ms

==================================================================================

Cast:

Saoirse Ronan, Diane Kruger, Max Irons

Plot:

When an unseen enemy threatens mankind by taking over their bodies and erasing
their memories, Melanie will risk everything to protect the people she cares
most about, proving that love can conquer all in a dangerous new world. 

IMDb:
 
http://www.imdb.co.uk/title/tt1517260/

Notes:

cropped subs, alterd a/r, gamma, hue, saturation, brightness and contrast and sharpend up,
reworked audio to 6 channel in soundforge, mixed back down in vegas then muxed back to vid.
enjoy :)

==================================================================================

Screens :
 
http://s24.postimg.org/rtjsc3sx1/image.png
 
http://s24.postimg.org/p0qks2skl/image.png
 
http://s24.postimg.org/ymk58djqd/image.png
 
http://s24.postimg.org/urgr5t0kl/image.png
 
http://s24.postimg.org/t0xq4bj1h/image.png
 
http://s24.postimg.org/boxdivpk5/image.png
 
http://s24.postimg.org/3kturvsit/image.png
 
http://s24.postimg.org/py1leotgl/image.png
 
http://s24.postimg.org/8m18t8zz9/image.png
 
http://s24.postimg.org/5t8197zmt/image.png


GREETZ TO ALL
RESPECT TO ALL